<svg width="18" height="18" viewBox="0 0 18 18" fill="none" xmlns="http://www.w3.org/2000/svg">
<path d="M10.9375 2.125C10.418 2.125 10 1.70508 10 1.1875C10 0.669922 10.418 0.25 10.9375 0.25H16.5625C17.082 0.25 17.5 0.669922 17.5 1.1875V6.8125C17.5 7.33203 17.082 7.75 16.5625 7.75C16.043 7.75 15.625 7.33203 15.625 6.8125V3.44922L7.81641 11.1914C7.48438 11.5898 6.89062 11.5898 6.52344 11.1914C6.16016 10.8594 6.16016 10.2656 6.52344 9.89844L14.3008 2.125H10.9375ZM0 3.6875C0 2.4793 0.979297 1.5 2.1875 1.5H6.5625C7.08203 1.5 7.5 1.91992 7.5 2.4375C7.5 2.95703 7.08203 3.375 6.5625 3.375H2.1875C2.01484 3.375 1.875 3.51562 1.875 3.6875V15.5625C1.875 15.7344 2.01484 15.875 2.1875 15.875H14.0625C14.2344 15.875 14.375 15.7344 14.375 15.5625V11.1875C14.375 10.668 14.793 10.25 15.3125 10.25C15.832 10.25 16.25 10.668 16.25 11.1875V15.5625C16.25 16.7695 15.2695 17.75 14.0625 17.75H2.1875C0.979297 17.75 0 16.7695 0 15.5625V3.6875Z"/>
</svg>
