<svg viewBox="0 0 24 24" fill="none" xmlns="http://www.w3.org/2000/svg">
<path d="M3.28546 12.0004C3.28546 11.4828 3.70578 11.0625 4.22335 11.0625L17.473 11.0625L12.2894 6.11715C11.9134 5.7595 11.9 5.16364 12.2576 4.79137C12.6153 4.41661 13.2084 4.40317 13.5834 4.75964L20.4584 11.3221C20.645 11.4965 20.75 11.7425 20.75 12.0004C20.75 12.2582 20.645 12.5004 20.4595 12.68L13.5845 19.2425C13.2112 19.5976 12.6175 19.5843 12.2581 19.2093C11.9005 18.8382 11.9139 18.2425 12.2899 17.8836L17.4734 12.9382L4.18829 12.9382C3.67218 12.9379 3.28546 12.516 3.28546 12.0004Z"/>
</svg>
