<svg width="24" height="24" viewBox="0 0 24 24" fill="none" xmlns="http://www.w3.org/2000/svg">
<path d="M11.7324 3.76739C12.25 3.76739 12.6703 4.18771 12.6703 4.70529L12.6703 17.9549L17.6156 12.7713C17.9733 12.3953 18.5691 12.3819 18.9414 12.7396C19.3162 13.0972 19.3296 13.6903 18.9731 14.0653L12.4107 20.9403C12.2363 21.127 11.9902 21.2319 11.7324 21.2319C11.4746 21.2319 11.2324 21.127 11.0527 20.9414L4.49024 14.0664C4.13516 13.6932 4.14844 13.0994 4.52344 12.7401C4.89454 12.3824 5.49024 12.3958 5.84922 12.7718L10.7945 17.9554L10.7945 4.67023C10.7949 4.15411 11.2168 3.76739 11.7324 3.76739Z" />
</svg>
