<svg viewBox="0 0 24 24" fill="none" xmlns="http://www.w3.org/2000/svg">
<path d="M13.25 3.25V3.94844C16.082 4.39805 18.25 6.85156 18.25 9.8125V11.1172C18.25 12.8906 18.8555 14.6133 19.9609 16L20.543 16.7266C20.7695 17.0078 20.8125 17.3945 20.6563 17.7188C20.5 18.043 20.1719 18.25 19.8125 18.25H4.18751C3.82696 18.25 3.49864 18.043 3.34255 17.7188C3.18641 17.3945 3.23032 17.0078 3.45548 16.7266L4.0379 16C5.1461 14.6133 5.75001 12.8906 5.75001 11.1172V9.8125C5.75001 6.85156 7.91798 4.39805 10.75 3.94844V3.25C10.75 2.55977 11.3086 2 12 2C12.6914 2 13.25 2.55977 13.25 3.25ZM11.6875 5.75C9.44532 5.75 7.62501 7.57031 7.62501 9.8125V11.1172C7.62501 12.9883 7.08282 14.8125 6.07462 16.375H17.9258C16.918 14.8125 16.375 12.9883 16.375 11.1172V9.8125C16.375 7.57031 14.5547 5.75 12.3125 5.75H11.6875ZM14.5 19.5C14.5 20.1289 14.2383 20.8008 13.7695 21.2695C13.3008 21.7383 12.6289 22 12 22C11.3359 22 10.6992 21.7383 10.2305 21.2695C9.76173 20.8008 9.50001 20.1289 9.50001 19.5H14.5Z"/>
</svg>
