<svg width="24" height="24" viewBox="0 0 24 24" fill="none" xmlns="http://www.w3.org/2000/svg">
<g clip-path="url(#clip0_4129_16340)">
<path d="M17.625 2H6.375C5.33945 2 4.5 2.83945 4.5 3.875V20.7461C4.5 21.7109 5.54648 22.3117 6.37969 21.8258L12 18.5469L17.6211 21.8254C18.4531 22.2773 19.5 21.7109 19.5 20.7461V3.875C19.5 2.83945 18.6602 2 17.625 2ZM17.625 19.6562L12 16.375L6.375 19.6562V4.10938C6.375 3.97773 6.47773 3.875 6.57422 3.875H17.3555C17.5234 3.875 17.625 3.97773 17.625 4.10938V19.6562Z" />
</g>
<defs>
<clipPath id="clip0_4129_16340">
<rect width="15" height="20" fill="white" transform="translate(4.5 2)"/>
</clipPath>
</defs>
</svg>
