<svg viewBox="0 0 24 24" fill="inherit" xmlns="http://www.w3.org/2000/svg">
<path d="M18.1914 16.6486C18.5574 17.0146 18.5574 17.6084 18.1914 17.9744C17.8254 18.3404 17.2316 18.3404 16.8656 17.9744L12.25 13.3244L7.60155 17.9728C7.23558 18.3388 6.64179 18.3388 6.27577 17.9728C5.90976 17.6069 5.90979 17.0131 6.27577 16.6471L10.9258 12.0002L6.27448 7.31659C5.90851 6.95061 5.90851 6.35682 6.27448 5.99081C6.64046 5.62479 7.23425 5.62483 7.60026 5.99081L12.25 10.676L16.8984 6.02752C17.2644 5.66155 17.8582 5.66155 18.2242 6.02752C18.5902 6.3935 18.5902 6.98729 18.2242 7.35331L13.5742 12.0002L18.1914 16.6486Z" fill="inherit" />
</svg>
