<svg width="24" height="24" viewBox="0 0 24 24" fill="none" xmlns="http://www.w3.org/2000/svg">
<path d="M2 5.1875C2 3.9793 2.9793 3 4.1875 3H6.0625C7.26953 3 8.25 3.9793 8.25 5.1875V8.50391L12.3047 6.13672C13.5547 5.40859 15.125 6.30859 15.125 7.75781V8.8125L19.1133 6.25781C20.3633 5.46016 22 6.35547 22 7.83984V17.6875C22 19.2422 20.7422 20.5 19.1875 20.5H4.8125C3.25937 20.5 2 19.2422 2 17.6875V5.1875ZM4.1875 4.875C4.01484 4.875 3.875 5.01484 3.875 5.1875V17.6875C3.875 18.207 4.29492 18.625 4.8125 18.625H19.1875C19.707 18.625 20.125 18.207 20.125 17.6875V7.83984L14.6914 11.3164C14.4023 11.5 14.0391 11.5117 13.7383 11.3477C13.4375 11.1836 13.25 10.8672 13.25 10.5234V7.75781L7.78516 10.9453C7.49609 11.1133 7.13672 11.1172 6.84375 10.9492C6.55469 10.7812 6.375 10.4727 6.375 10.1367V5.1875C6.375 5.01484 6.23438 4.875 6.0625 4.875H4.1875Z" />
</svg>
