<svg viewBox="0 0 16 18" xmlns="http://www.w3.org/2000/svg">
<path d="M14.5625 15.5898H1.4375C0.919922 15.5898 0.5 16.0102 0.5 16.5281C0.5 17.0781 0.919922 17.5 1.4375 17.5H14.5625C15.0801 17.5 15.5 17.0797 15.5 16.5617C15.5 16.043 15.082 15.5898 14.5625 15.5898ZM12.3164 6.86328L8.9375 10.457V0.941406C8.9375 0.420312 8.51953 0 8 0C7.48047 0 7.0625 0.420313 7.0625 0.938281V10.4539L3.68242 6.86328C3.49805 6.66406 3.24922 6.56641 3 6.56641C2.7693 6.56641 2.53867 6.6507 2.35781 6.82172C1.98063 7.17598 1.9625 7.76977 2.31754 8.14711L7.31754 13.4635C7.67152 13.8422 8.32848 13.8422 8.68238 13.4635L13.6824 8.14711C14.0376 7.76965 14.0193 7.17602 13.6421 6.82172C13.2656 6.46484 12.6719 6.44922 12.3164 6.86328Z" fill="black"/>
</svg>
