<svg viewBox="0 0 24 24" fill="none" xmlns="http://www.w3.org/2000/svg">
<path d="M16.5742 2.82374C17.6719 1.72542 19.4531 1.72542 20.5508 2.82374L21.0234 3.29718C22.1211 4.39562 22.1211 6.17647 21.0234 7.27413L13.3203 14.9812C12.9805 15.3171 12.5625 15.5632 12.1016 15.696L8.19531 16.8132C7.86719 16.9069 7.51562 16.8132 7.27344 16.5398C7.03516 16.3327 6.94141 15.9812 7.03516 15.653L8.15234 11.7468C8.28516 11.2858 8.53125 10.8679 8.86719 10.528L16.5742 2.82374ZM19.1914 4.14952C18.8594 3.78351 18.2656 3.78351 17.8984 4.14952L16.7617 5.28585L18.5625 7.08663L19.6992 5.91476C20.0664 5.58272 20.0664 4.98897 19.6992 4.62296L19.1914 4.14952ZM9.95703 12.2624L9.30078 14.5476L11.5859 13.8913C11.7422 13.8483 11.8789 13.7663 11.9922 13.653L17.2383 8.41085L15.4375 6.61007L10.1953 11.8562C10.082 11.9694 10 12.1062 9.95703 12.2624ZM9.8125 4.34835C10.332 4.34835 10.75 4.76827 10.75 5.28585C10.75 5.80538 10.332 6.22335 9.8125 6.22335H5.4375C4.57461 6.22335 3.875 6.92257 3.875 7.78585V18.4108C3.875 19.2741 4.57461 19.9733 5.4375 19.9733H16.0625C16.9258 19.9733 17.625 19.2741 17.625 18.4108V14.0358C17.625 13.5163 18.043 13.0983 18.5625 13.0983C19.082 13.0983 19.5 13.5163 19.5 14.0358V18.4108C19.5 20.3093 17.9609 21.8483 16.0625 21.8483H5.4375C3.53906 21.8483 2 20.3093 2 18.4108V7.78585C2 5.88741 3.53906 4.34835 5.4375 4.34835H9.8125Z"/>
</svg>
