<svg width="12" height="12" viewBox="0 0 12 12" xmlns="http://www.w3.org/2000/svg">
<path d="M7.29167 1.41667C6.94531 1.41667 6.66667 1.13672 6.66667 0.791672C6.66667 0.44662 6.94531 0.166672 7.29167 0.166672H11.0417C11.388 0.166672 11.6667 0.44662 11.6667 0.791672V4.54167C11.6667 4.88803 11.388 5.16667 11.0417 5.16667C10.6953 5.16667 10.4167 4.88803 10.4167 4.54167V2.29948L5.21094 7.46094C4.98958 7.72657 4.59375 7.72657 4.34896 7.46094C4.10677 7.23959 4.10677 6.84376 4.34896 6.59896L9.53385 1.41667H7.29167ZM0 2.45834C0 1.65287 0.652865 1.00001 1.45833 1.00001H4.375C4.72135 1.00001 5 1.27995 5 1.62501C5 1.97136 4.72135 2.25001 4.375 2.25001H1.45833C1.34323 2.25001 1.25 2.34376 1.25 2.45834V10.375C1.25 10.4896 1.34323 10.5833 1.45833 10.5833H9.375C9.48958 10.5833 9.58333 10.4896 9.58333 10.375V7.45834C9.58333 7.11199 9.86198 6.83334 10.2083 6.83334C10.5547 6.83334 10.8333 7.11199 10.8333 7.45834V10.375C10.8333 11.1797 10.1797 11.8333 9.375 11.8333H1.45833C0.652865 11.8333 0 11.1797 0 10.375V2.45834Z" />
</svg>
