<svg width="24" height="24" viewBox="0 0 24 24" fill="none" xmlns="http://www.w3.org/2000/svg">
<path d="M4.47735 6.39844C6.31641 4.68906 8.84375 3.25 12 3.25C15.1563 3.25 17.6836 4.68906 19.5234 6.39844C21.3516 8.09375 22.5742 10.0898 23.1523 11.5195C23.2813 11.8281 23.2813 12.1719 23.1523 12.4805C22.5742 13.875 21.3516 15.8711 19.5234 17.6016C17.6836 19.3125 15.1563 20.75 12 20.75C8.84375 20.75 6.31641 19.3125 4.47735 17.6016C2.64922 15.8711 1.42735 13.875 0.846138 12.4805C0.717954 12.1719 0.717954 11.8281 0.846138 11.5195C1.42735 10.0898 2.64922 8.09375 4.47735 6.39844ZM12 5.125C9.45313 5.125 7.35938 6.28125 5.75391 7.76953C4.25 9.16797 3.21172 10.793 2.68125 12C3.21172 13.1719 4.25 14.832 5.75391 16.2305C7.35938 17.7188 9.45313 18.875 12 18.875C14.5469 18.875 16.6406 17.7188 18.2461 16.2305C19.75 14.832 20.7539 13.1719 21.3203 12C20.7539 10.793 19.75 9.16797 18.2461 7.76953C16.6406 6.28125 14.5469 5.125 12 5.125Z" fill="#CED3E0"/>
<circle cx="12" cy="12" r="3" stroke="#CED3E0" stroke-width="2"/>
</svg>
