<svg viewBox="0 0 24 24" fill="none" xmlns="http://www.w3.org/2000/svg">
<path d="M2 18.25C2 17.7305 2.41992 17.3125 2.9375 17.3125H5.26797C5.66641 16.043 6.85156 15.125 8.25 15.125C9.64844 15.125 10.832 16.043 11.2305 17.3125H21.0625C21.582 17.3125 22 17.7305 22 18.25C22 18.7695 21.582 19.1875 21.0625 19.1875H11.2305C10.832 20.457 9.64844 21.375 8.25 21.375C6.85156 21.375 5.66641 20.457 5.26797 19.1875H2.9375C2.41992 19.1875 2 18.7695 2 18.25ZM9.5 18.25C9.5 17.5586 8.94141 17 8.25 17C7.55859 17 7 17.5586 7 18.25C7 18.9414 7.55859 19.5 8.25 19.5C8.94141 19.5 9.5 18.9414 9.5 18.25ZM15.75 8.875C17.1484 8.875 18.332 9.79297 18.7305 11.0625H21.0625C21.582 11.0625 22 11.4805 22 12C22 12.5195 21.582 12.9375 21.0625 12.9375H18.7305C18.332 14.207 17.1484 15.125 15.75 15.125C14.3516 15.125 13.168 14.207 12.7695 12.9375H2.9375C2.41992 12.9375 2 12.5195 2 12C2 11.4805 2.41992 11.0625 2.9375 11.0625H12.7695C13.168 9.79297 14.3516 8.875 15.75 8.875ZM17 12C17 11.3086 16.4414 10.75 15.75 10.75C15.0586 10.75 14.5 11.3086 14.5 12C14.5 12.6914 15.0586 13.25 15.75 13.25C16.4414 13.25 17 12.6914 17 12ZM21.0625 4.8125C21.582 4.8125 22 5.23242 22 5.75C22 6.26953 21.582 6.6875 21.0625 6.6875H12.4805C12.082 7.95703 10.8984 8.875 9.5 8.875C8.10156 8.875 6.91797 7.95703 6.51953 6.6875H2.9375C2.41992 6.6875 2 6.26953 2 5.75C2 5.23242 2.41992 4.8125 2.9375 4.8125H6.51953C6.91797 3.54453 8.10156 2.625 9.5 2.625C10.8984 2.625 12.082 3.54453 12.4805 4.8125H21.0625ZM8.25 5.75C8.25 6.44141 8.80859 7 9.5 7C10.1914 7 10.75 6.44141 10.75 5.75C10.75 5.05977 10.1914 4.5 9.5 4.5C8.80859 4.5 8.25 5.05977 8.25 5.75Z"/>
</svg>
