<svg viewBox="0 0 24 24" fill="none" xmlns="http://www.w3.org/2000/svg">
<path d="M21.8789 3.96756C20.0391 3.30232 18.3125 2.98357 16.8008 3.00076C14.5078 3.03748 12.793 3.7031 12 4.08357C11.207 3.7031 9.49609 3.03826 7.20312 3.00154C5.66406 2.97459 3.96016 3.30154 2.12109 3.96756C1.29766 4.26599 0.75 5.0574 0.75 5.93748V17.3476C0.75 17.9965 1.04664 18.5957 1.56406 18.9914C2.10039 19.4027 2.78828 19.5347 3.44688 19.3564C8.06016 18.1064 11.3375 20.2517 11.4742 20.3408C11.6328 20.4453 11.8164 20.5 11.9648 20.5C12.1133 20.5 12.3309 20.4469 12.4895 20.3407C12.6268 20.2497 15.9109 18.1059 20.5168 19.3544C21.1777 19.5326 21.8645 19.4008 22.4004 18.9894C22.9531 18.5937 23.25 17.9961 23.25 17.3437V5.93748C23.25 5.0574 22.668 4.26599 21.8789 3.96756ZM11.0625 18.0312C9.97422 17.5777 8.33438 17.0886 6.32031 17.0886C5.28945 17.0886 4.16094 17.2168 2.95781 17.5422C2.82773 17.582 2.73594 17.5273 2.70312 17.5C2.625 17.4414 2.625 17.3672 2.625 17.3437V5.93748C2.625 5.84775 2.68422 5.76049 2.76539 5.73115C4.365 5.15302 5.87516 4.85771 7.17164 4.87802C9.00391 4.90545 10.3906 5.41209 11.0625 5.71482V18.0312ZM21.375 17.3437C21.375 17.3669 21.375 17.4383 21.2969 17.4988C21.2639 17.5238 21.1742 17.5794 21.0423 17.5421C17.4884 16.5812 14.5814 17.3455 12.9369 18.0315V5.71513C13.6088 5.41115 14.9951 4.90498 16.8271 4.87646C18.1041 4.85632 19.6349 5.15174 21.2334 5.72959C21.3164 5.75779 21.375 5.84763 21.375 5.93748V17.3437Z"/>
</svg>
