<svg width="24" height="24" viewBox="0 0 24 24" fill="none" xmlns="http://www.w3.org/2000/svg">
<path d="M11.3945 2.22266C11.7422 1.92578 12.2578 1.92578 12.6055 2.22266L22.918 10.9727C23.3125 11.3086 23.3633 11.8984 23.0274 12.293C22.6914 12.6875 22.1016 12.7383 21.707 12.4023L20.75 11.5898V18.875C20.75 20.6016 19.3516 22 17.625 22H6.37501C4.64923 22 3.25001 20.6016 3.25001 18.875V11.5898L2.29416 12.4023C1.89923 12.7383 1.30783 12.6875 0.972671 12.293C0.637671 11.8984 0.686186 11.3086 1.08099 10.9727L11.3945 2.22266ZM5.12501 10V18.875C5.12501 19.5664 5.68361 20.125 6.37501 20.125H17.625C18.3164 20.125 18.875 19.5664 18.875 18.875V10L12 4.1668L5.12501 10Z"/>
</svg>
