<svg width="38" height="34" viewBox="0 0 38 34" fill="none" xmlns="http://www.w3.org/2000/svg">
<path d="M0.25 1.89575C0.25 1.03312 0.94987 0.333252 1.8125 0.333252H23.6875C24.5534 0.333252 25.25 1.03312 25.25 1.89575C25.25 2.75838 24.5534 3.45825 23.6875 3.45825H23.1667V4.69393C23.1667 7.31893 22.0664 9.77987 20.2695 11.6939L14.957 16.9999L17.8086 19.8515C17.2357 21.2187 16.9167 22.7161 16.9167 24.2916C16.9167 28.1653 18.8437 31.5898 21.7865 33.6666H1.8125C0.94987 33.6666 0.25 32.97 0.25 32.1041C0.25 31.2382 0.94987 30.5416 1.8125 30.5416H2.33333V29.3046C2.33333 26.6809 3.37565 24.1614 5.23177 22.3059L10.543 16.9999L5.23177 11.6939C3.37565 9.77987 2.33333 7.31893 2.33333 4.69393V3.39966H1.8125C0.94987 3.39966 0.25 2.75838 0.25 1.83716V1.89575ZM6.74609 8.66659H18.7526C19.5273 7.52075 20.0417 6.12948 20.0417 4.69393V3.45825H5.45833V4.69393C5.45833 6.12948 5.91406 7.52075 6.74609 8.66659ZM37.75 24.2916C37.75 29.4674 33.5508 33.6666 28.375 33.6666C23.1992 33.6666 19 29.4674 19 24.2916C19 19.1158 23.1992 14.9166 28.375 14.9166C33.5508 14.9166 37.75 19.1158 37.75 24.2916ZM27.2747 20.1249V24.2916C27.2747 24.8645 27.8021 25.3333 28.3164 25.3333H31.5C32.0729 25.3333 32.5417 24.8645 32.5417 24.2916C32.5417 23.7187 32.0729 23.2499 31.5 23.2499H29.3581V20.1249C29.3581 19.552 28.9479 19.0833 28.3164 19.0833C27.8021 19.0833 27.2747 19.552 27.2747 20.1249Z" />
</svg>
