<svg width="24" height="24" viewBox="0 0 24 24" fill="none" xmlns="http://www.w3.org/2000/svg">
<path d="M12.7852 11.2461C13.043 11.293 13.4336 11.3711 13.6055 11.418C14.0234 11.5273 14.2734 11.957 14.1602 12.3711C14.0508 12.7891 13.6211 13.0391 13.207 12.9258C13.0547 12.8867 12.5273 12.7852 12.3555 12.7227C11.8789 12.6836 11.457 12.7461 11.2383 12.8594C10.9922 12.9688 10.9336 13.0977 10.918 13.1758C10.8945 13.3086 10.918 13.3555 10.9258 13.3711C10.9336 13.3906 10.9648 13.4375 11.0664 13.5078C11.3047 13.6719 11.6797 13.7891 12.1992 13.957L12.2656 13.9648C12.7383 14.1094 13.3711 14.2969 13.8438 14.6445C14.1055 14.832 14.3516 15.0898 14.5039 15.4414C14.6602 15.7969 14.6914 16.1875 14.6211 16.5938C14.4922 17.3359 14 17.8438 13.3828 18.1055C13.1953 18.1523 12.9922 18.2461 12.7852 18.2852V18.5C12.7852 18.9336 12.4336 19.2852 11.9648 19.2852C11.5664 19.2852 11.2148 18.9336 11.2148 18.5V18.25C10.8438 18.1641 10.3242 18 10.0508 17.8945C9.98438 17.8711 9.92578 17.8516 9.87891 17.8008C9.46875 17.6992 9.24609 17.2578 9.38281 16.8477C9.51953 16.4375 9.96094 16.2148 10.3711 16.3516C10.4492 16.3789 10.5352 16.4062 10.6211 16.4375C10.9922 16.5625 11.4102 16.7031 11.6445 16.7422C12.1445 16.8203 12.5313 16.7695 12.7695 16.668C12.9844 16.5781 13.0586 16.4609 13.082 16.3242C13.1094 16.168 13.0859 16.0977 13.0703 16.0664C13.0586 16.0313 13.0234 15.9766 12.9258 15.9062C12.6953 15.7383 12.3281 15.6172 11.7812 15.4492L11.6953 15.4258C11.2383 15.2891 10.6406 15.1094 10.1875 14.8008C9.92969 14.625 9.67578 14.3828 9.51172 14.0391C9.34766 13.6914 9.30859 13.3047 9.37891 12.9062C9.50391 12.1914 10.0117 11.6992 10.5938 11.4336C10.7539 11.3477 10.9961 11.2812 11.2148 11.2344V10.9648C11.2148 10.5664 11.5664 10.2148 12 10.2148C12.4336 10.2148 12.7852 10.5664 12.7852 10.9648V11.2461ZM8.99219 6.95312L6.76172 3.71953C6.30078 3.09766 6.78125 2.25 7.53516 2.25H16.4648C17.2187 2.25 17.6641 3.09766 17.2383 3.71953L14.9727 6.95312C15.3281 7.16016 15.7031 7.41016 16.1094 7.71484C18.5078 9.49609 22 12.9844 22 18.5C22 20.5703 20.3203 22.25 18.25 22.25H5.75C3.67891 22.25 2 20.5703 2 18.5C2 12.9844 5.49258 9.49609 7.89062 7.71484C8.29688 7.41016 8.67188 7.16016 8.99219 6.95312ZM10.0039 8.53125C7.89453 9.88281 3.875 13.0703 3.875 18.5C3.875 19.5352 4.71445 20.375 5.75 20.375H18.25C19.2852 20.375 20.125 19.5352 20.125 18.5C20.125 13.0703 16.1055 9.88281 13.9961 8.53125L13.457 8.15234H10.543L10.0039 8.53125ZM13.1367 6.27734L14.6797 4.08984H9.32031L10.8281 6.27734H13.1367Z" />
</svg>
