<svg viewBox="0 0 24 24" xmlns="http://www.w3.org/2000/svg">
<path d="M9.125 12C11.6105 12 13.625 9.9852 13.625 7.5C13.625 5.0148 11.6105 3 9.125 3C6.63945 3 4.625 5.0148 4.625 7.5C4.625 9.9852 6.63945 12 9.125 12ZM9.125 4.6875C10.6757 4.6875 11.9375 5.94926 11.9375 7.5C11.9375 9.05074 10.6757 10.3125 9.125 10.3125C7.57461 10.3125 6.3125 9.05039 6.3125 7.5C6.3125 5.94926 7.57461 4.6875 9.125 4.6875ZM10.9074 13.6875H7.34258C3.97848 13.6875 1.25 16.4156 1.25 19.7801C1.25 20.4551 1.79563 21 2.46852 21H15.7822C16.4551 21 17 20.4551 17 19.7801C17 16.4156 14.2719 13.6875 10.9074 13.6875ZM2.96246 19.3125C3.19695 17.1012 5.07148 15.375 7.34258 15.375H10.9074C13.1789 15.375 15.0242 17.1022 15.2879 19.3125H2.96246ZM22.9062 10.0312H21.2188V8.34375C21.2188 7.87969 20.8426 7.5 20.375 7.5C19.9074 7.5 19.5312 7.87793 19.5312 8.34375V10.0312H17.8438C17.3797 10.0312 17 10.4109 17 10.875C17 11.3391 17.3779 11.7188 17.8438 11.7188H19.5312V13.4062C19.5312 13.8738 19.9109 14.25 20.375 14.25C20.8391 14.25 21.2188 13.8721 21.2188 13.4062V11.7188H22.9062C23.3738 11.7188 23.75 11.3426 23.75 10.875C23.75 10.4074 23.3738 10.0312 22.9062 10.0312Z"/>
</svg>
