<svg width="24" height="24" viewBox="0 0 24 24" fill="none" xmlns="http://www.w3.org/2000/svg">
<path d="M13.1875 4.86953C14.2539 4.97891 15.25 5.18594 15.9805 5.35859C16.4844 5.47773 16.7969 5.94922 16.6797 6.48828C16.5586 6.99219 16.0547 7.30078 15.5508 7.18359C14.3477 6.89844 12.5977 6.57031 11.1016 6.69531C10.3594 6.75391 9.75704 6.88672 9.33087 7.19141C8.93712 7.44141 8.65548 7.80078 8.54259 8.37891C8.45392 8.83594 8.51564 9.12891 8.61915 9.33984C8.72931 9.55859 8.93517 9.77734 9.28868 9.99609C10.0391 10.4609 11.1211 10.7539 12.4805 11.0898L12.5703 11.1133C13.7813 11.4219 15.1758 11.7773 16.1992 12.4102C16.7422 12.7461 17.2461 13.1992 17.5586 13.8242C17.875 14.4258 17.918 15.1836 17.7969 15.9766C17.5274 17.3594 16.5234 18.2617 15.2774 18.7344C14.6484 18.9766 13.9414 19.1172 13.1875 19.1641V21.0625C13.1875 21.582 12.7695 22 12.25 22C11.7305 22 11.3125 21.582 11.3125 21.0625V19.1211C11.1836 19.1055 11.0547 19.0898 10.9258 19.0742L10.8867 19.0703C9.94923 18.9297 8.22736 18.5312 7.18165 18.0664C6.70861 17.8555 6.49572 17.3008 6.70587 16.8281C6.91603 16.3555 7.47032 16.1406 7.94337 16.3516C8.77189 16.7188 10.3047 17.0859 11.1875 17.2148C12.5781 17.4102 13.7656 17.3047 14.6094 16.9844C15.4336 16.668 15.8477 16.1914 15.957 15.6211C16.0469 15.1289 15.9844 14.8711 15.8789 14.6602C15.7695 14.4414 15.5664 14.2227 15.2109 14.0039C14.4609 13.5391 13.3438 13.2461 12.0195 12.9102L11.9297 12.8867C10.7188 12.5781 9.32384 12.2227 8.30157 11.5898C7.75704 11.2539 7.25509 10.8008 6.9422 10.1758C6.62345 9.53906 6.54806 8.81641 6.70236 8.02344C6.91642 6.88672 7.51212 6.125 8.32579 5.60898C9.10704 5.1125 10.043 4.89844 10.9492 4.825C11.0703 4.81523 11.1914 4.80781 11.3125 4.80234V2.9375C11.3125 2.41992 11.7305 2 12.25 2C12.7695 2 13.1875 2.41992 13.1875 2.9375V4.86953Z"/>
</svg>
