<svg width="26" height="24" viewBox="0 0 26 24" fill="none" xmlns="http://www.w3.org/2000/svg">
<path d="M20.5 6.625H3C2.65469 6.625 2.375 6.90625 2.375 7.25V17.25C2.375 17.5938 2.65469 17.875 3 17.875H14.1055C13.8867 18.1523 13.7305 18.4727 13.6445 18.8164L13.4102 19.75H3C1.61914 19.75 0.5 18.6289 0.5 17.25V7.25C0.5 5.86914 1.61914 4.75 3 4.75H20.5C21.8789 4.75 23 5.86914 23 7.25V9.77344C22.4062 9.85156 21.8359 10.1172 21.3828 10.5742L21.125 10.8281V7.25C21.125 6.90625 20.8438 6.625 20.5 6.625ZM10.5 13.8125C10.5 13.293 10.918 12.875 11.4375 12.875H13.3125C13.832 12.875 14.25 13.293 14.25 13.8125C14.25 14.332 13.832 14.75 13.3125 14.75H11.4375C10.918 14.75 10.5 14.332 10.5 13.8125ZM17.0625 9.125C17.582 9.125 18 9.54297 18 10.0625C18 10.582 17.582 11 17.0625 11H11.4375C10.918 11 10.5 10.582 10.5 10.0625C10.5 9.54297 10.918 9.125 11.4375 9.125H17.0625ZM6.71484 7.71484C7.18359 7.71484 7.53516 8.06641 7.53516 8.5V8.74609C7.79297 8.79297 8.18359 8.87109 8.35547 8.91797C8.77344 9.02734 9.02344 9.45703 8.91016 9.87109C8.80078 10.2891 8.37109 10.5391 7.95703 10.4258C7.80469 10.3867 7.27734 10.2852 7.10547 10.2227C6.62891 10.1836 6.20703 10.2461 5.98828 10.3594C5.74219 10.4688 5.68359 10.5977 5.66797 10.6758C5.64453 10.8086 5.66797 10.8555 5.67578 10.8711C5.68359 10.8906 5.71484 10.9375 5.81641 11.0078C6.05469 11.1719 6.42969 11.2891 6.94922 11.457L7.01562 11.4648C7.48828 11.6094 8.12109 11.7969 8.59375 12.1445C8.85547 12.332 9.10156 12.5898 9.25391 12.9414C9.41016 13.2969 9.44141 13.6875 9.37109 14.0938C9.24219 14.8359 8.75 15.3438 8.13281 15.6055C7.94531 15.6523 7.74219 15.7461 7.53516 15.7852V16C7.53516 16.4336 7.18359 16.7852 6.71484 16.7852C6.31641 16.7852 5.96484 16.4336 5.96484 16V15.75C5.59375 15.6641 5.07422 15.5 4.80078 15.3945C4.73438 15.3711 4.67578 15.3516 4.62891 15.3008C4.21875 15.1992 3.99727 14.7578 4.13359 14.3477C4.26992 13.9375 4.71094 13.7148 5.12109 13.8516C5.19922 13.8789 5.28516 13.9062 5.37109 13.9375C5.74219 14.0625 6.16016 14.2031 6.39453 14.2422C6.89453 14.3203 7.28125 14.2695 7.51953 14.168C7.73438 14.0781 7.80859 13.9609 7.83203 13.8242C7.85938 13.668 7.83594 13.5977 7.82031 13.5664C7.80859 13.5313 7.77344 13.4766 7.67578 13.4062C7.44531 13.2383 7.07812 13.1172 6.53125 12.9492L6.44531 12.9258C5.98828 12.7891 5.39062 12.6094 4.9375 12.3008C4.67969 12.125 4.42578 11.8828 4.2625 11.5391C4.09687 11.1914 4.06016 10.8047 4.1293 10.4062C4.25273 9.69141 4.76172 9.19922 5.34375 8.93359C5.50391 8.84766 5.74609 8.78125 5.96484 8.73438V8.46484C5.96484 8.06641 6.31641 7.71484 6.71484 7.71484ZM25.0352 12.0195C25.6484 12.6289 25.6484 13.6172 25.0352 14.2305L23.8867 15.3789L21.1172 12.6055L22.2656 11.457C22.875 10.8477 23.8633 10.8477 24.4766 11.457L25.0352 12.0195ZM15.1836 18.5039L20.2305 13.4922L23.0039 16.2617L17.957 21.3086C17.7969 21.4688 17.5938 21.582 17.375 21.6367L15.0273 22.2266C14.8125 22.2773 14.5898 22.2148 14.4336 22.0625C14.2773 21.9062 14.2148 21.6797 14.2695 21.4336L14.8555 19.1172C14.9102 18.8984 15.0234 18.6992 15.1836 18.5039Z" />
</svg>
