<svg width="24" height="24" viewBox="0 0 24 24" fill="none" xmlns="http://www.w3.org/2000/svg">
<path d="M15.3164 2.00002C16.0625 2.00002 16.6016 2.71328 16.3984 3.43008L14.3047 10.75H17.6367C18.3906 10.75 19 11.3594 19 12.1133C19 12.5156 18.8242 12.8945 18.5195 13.1562L8.41016 21.7344C8.20703 21.9062 7.94922 22 7.68242 22C6.93672 22 6.39844 21.2852 6.60313 20.5703L8.69531 13.25H5.31797C4.58984 13.25 4 12.6602 4 11.9336C4 11.5469 4.16855 11.1797 4.46133 10.9297L14.5898 2.26926C14.793 2.09551 15.0508 2 15.3164 2V2.00002ZM13.9062 5.31992L6.82656 11.375H9.9375C10.2305 11.375 10.5078 11.5117 10.6875 11.7461C10.8633 11.9844 10.918 12.2891 10.8398 12.5703L9.08984 18.6992L16.2461 12.625H13.0625C12.7695 12.625 12.4922 12.4883 12.3125 12.2539C12.1367 12.0156 12.082 11.7109 12.1602 11.4297L13.9062 5.31992Z"/>
</svg>
