<svg width="16" height="20" viewBox="0 0 16 20" xmlns="http://www.w3.org/2000/svg">
<path d="M10.6526 7.51946C10.6526 9.2505 9.2505 10.6526 7.51946 10.6526C5.78842 10.6526 4.38635 9.2505 4.38635 7.51946C4.38635 5.78842 5.78842 4.38635 7.51946 4.38635C9.2505 4.38635 10.6526 5.78842 10.6526 7.51946ZM7.51946 6.26622C6.82626 6.26622 6.26622 6.82626 6.26622 7.51946C6.26622 8.21266 6.82626 8.7727 7.51946 8.7727C8.21266 8.7727 8.7727 8.21266 8.7727 7.51946C8.7727 6.82626 8.21266 6.26622 7.51946 6.26622ZM15.0389 7.51946C15.0389 10.9424 10.4567 17.0363 8.44764 19.5506C7.96593 20.1498 7.07299 20.1498 6.59128 19.5506C4.54692 17.0363 0 10.9424 0 7.51946C0 3.36652 3.36652 0 7.51946 0C11.6708 0 15.0389 3.36652 15.0389 7.51946ZM7.51946 1.87986C4.40593 1.87986 1.87986 4.40593 1.87986 7.51946C1.87986 8.00509 2.05571 8.75704 2.47907 9.75963C2.88951 10.7309 3.47227 11.804 4.14354 12.8888C5.25579 14.6982 6.5482 16.4136 7.51946 17.6903C8.49072 16.4136 9.78313 14.6982 10.8954 12.8888C11.5651 11.804 12.1486 10.7309 12.5598 9.75963C12.9828 8.75704 13.1591 8.00509 13.1591 7.51946C13.1591 4.40593 10.633 1.87986 7.51946 1.87986Z" />
</svg>
