<svg viewBox="0 0 24 24" fill="inherit" xmlns="http://www.w3.org/2000/svg">
<path d="M8 10V8C8 5.79094 9.79063 4 12 4C14.2094 4 16 5.79094 16 8V10H17C18.1031 10 19 10.8969 19 12V18C19 19.1031 18.1031 20 17 20H7C5.89531 20 5 19.1031 5 18V12C5 10.8969 5.89531 10 7 10H8ZM9.5 10H14.5V8C14.5 6.61937 13.3813 5.5 12 5.5C10.6188 5.5 9.5 6.61937 9.5 8V10ZM6.5 18C6.5 18.275 6.72375 18.5 7 18.5H17C17.275 18.5 17.5 18.275 17.5 18V12C17.5 11.725 17.275 11.5 17 11.5H7C6.72375 11.5 6.5 11.725 6.5 12V18Z"/>
</svg>
