<svg viewBox="0 0 24 24" fill="none" xmlns="http://www.w3.org/2000/svg">
<path d="M9.5 19.8125C9.5 20.332 9.08203 20.75 8.5625 20.75H5.75C3.67891 20.75 2 19.0711 2 17V7C2 4.92891 3.67891 3.25 5.75 3.25H8.5625C9.08203 3.25 9.5 3.66953 9.5 4.1875C9.5 4.70508 9.08203 5.125 8.5625 5.125H5.75C4.71875 5.125 3.875 5.96875 3.875 7V17C3.875 18.0312 4.71875 18.875 5.75 18.875H8.5625C9.08203 18.875 9.5 19.293 9.5 19.8125ZM21.7461 11.3594L16.7812 6.04688C16.426 5.66844 15.8328 5.65156 15.4566 6.0066C15.0795 6.36059 15.0613 6.95387 15.4164 7.33121L18.8906 11.0625H9.15234C8.66797 11.0625 8.25 11.4844 8.25 12C8.25 12.5156 8.66992 12.9375 9.15234 12.9375H18.8555L15.343 16.6703C14.9877 17.0475 15.0061 17.6406 15.3832 17.9949C15.6016 18.1641 15.832 18.25 16.0273 18.25C16.2764 18.25 16.5254 18.1511 16.7098 17.9546L21.6746 12.6421C22.0859 12.2812 22.0859 11.7188 21.7461 11.3594Z"/>
</svg>
