<svg width="24" height="24" viewBox="0 0 24 24" fill="none" xmlns="http://www.w3.org/2000/svg">
<path d="M19.5 5.5H12.7773L10.8906 3.73242C10.4219 3.26328 9.78906 3 9.125 3H4.5C3.11914 3 2 4.11953 2 5.5V18C2 19.3805 3.11914 20.5 4.5 20.5H19.5C20.8809 20.5 22 19.3805 22 18V8C22 6.62109 20.9141 5.5 19.5 5.5ZM20.125 18C20.125 18.3447 19.8446 18.625 19.5 18.625H4.5C4.15539 18.625 3.875 18.3447 3.875 18V5.5C3.875 5.15531 4.15539 4.875 4.5 4.875H9.08984C9.25676 4.875 9.41379 4.94 9.53164 5.05813L12 7.375H19.5C19.8446 7.375 20.125 7.65531 20.125 8V18Z" />
</svg>
