<svg width="24" height="24" viewBox="0 0 24 24" fill="inherit" xmlns="http://www.w3.org/2000/svg">
<path d="M21.6914 20.3984L16.457 15.1641C17.5899 13.7773 18.2149 12.0312 18.2149 10.125C18.2149 5.63672 14.577 2 10.0899 2C5.60274 2 2 5.63789 2 10.125C2 14.6121 5.63751 18.25 10.0899 18.25C11.9957 18.25 13.7441 17.5895 15.1289 16.4906L20.3633 21.725C20.582 21.9102 20.8242 22 21.0625 22C21.3008 22 21.5422 21.9084 21.7254 21.7254C22.0899 21.3594 22.0899 20.7656 21.6914 20.3984ZM3.87501 10.125C3.87501 6.67891 6.67891 3.875 10.125 3.875C13.5711 3.875 16.375 6.67891 16.375 10.125C16.375 13.5711 13.5711 16.375 10.125 16.375C6.67891 16.375 3.87501 13.5703 3.87501 10.125Z" fill="inherit"/>
</svg>
