<svg viewBox="0 0 52 52" xmlns="http://www.w3.org/2000/svg">
  <rect width="100%" height="100%" rx="8"/>
  <path d="M9.33301 18.0827C9.33301 15.7813 11.1982 13.916 13.4997 13.916H38.4997C40.7979 13.916 42.6663 15.7813 42.6663 18.0827V34.7494C42.6663 37.0475 40.7979 38.916 38.4997 38.916H13.4997C11.1982 38.916 9.33301 37.0475 9.33301 34.7494V18.0827ZM12.458 18.0827V19.5215L23.6885 28.7402C25.0296 29.847 26.9697 29.847 28.3109 28.7402L39.5413 19.5215V18.0241C39.5413 17.5098 39.0726 16.9824 38.4997 16.9824H13.4997C12.9242 16.9824 12.458 17.5098 12.458 18.0241V18.0827ZM12.458 23.5645V34.7494C12.458 35.3223 12.9242 35.791 13.4997 35.791H38.4997C39.0726 35.791 39.5413 35.3223 39.5413 34.7494V23.5645L30.2966 31.1556C27.7966 33.2064 24.2028 33.2064 21.6442 31.1556L12.458 23.5645Z"/>
</svg>
