<svg viewBox="0 0 18 18" fill="none" xmlns="http://www.w3.org/2000/svg">
  <circle cx="9" cy="9" r="7.5" width="100%" height="100%" />
  <path d="M1.5 9C1.5 4.85742 4.85742 1.5 9 1.5C13.1426 1.5 16.5 4.85742 16.5 9C16.5 13.1426 13.1426 16.5 9 16.5C4.85742 16.5 1.5 13.1426 1.5 9ZM12.3926 7.70508C12.7119 7.38574 12.7119 6.86426 12.3926 6.54492C12.0732 6.22559 11.5518 6.22559 11.2324 6.54492L8.0625 9.71484L6.76758 8.41992C6.44824 8.10059 5.92676 8.10059 5.60742 8.41992C5.28809 8.73926 5.28809 9.26074 5.60742 9.58008L7.48242 11.4551C7.80176 11.7744 8.32324 11.7744 8.64258 11.4551L12.3926 7.70508Z"/>
</svg>
