<svg width="122" height="23" viewBox="0 0 122 23" fill="none" xmlns="http://www.w3.org/2000/svg">
<path fill-rule="evenodd" clip-rule="evenodd" d="M61.0655 7.69721C62.0745 5.97333 63.7933 5.25849 65.8219 5.24938C68.9589 5.23514 70.746 7.19995 70.746 10.2926V18.1869H68.6149V10.7719C68.6149 8.61084 67.3498 7.29792 65.1765 7.30875C62.7386 7.32128 61.2737 8.94633 61.0655 11.3016V18.1869H58.9346V5.32143H61.0655V7.69721ZM54.7737 2.94822C55.3248 2.94822 55.9477 3.16352 56.4748 3.52293L57.6251 1.15086C56.7622 0.575855 55.6364 0.264286 54.5581 0.264286C52.1861 0.264286 50.0054 1.72615 50.0054 4.67323V5.8953H48.3279V8.17139H50.0054V18.1869H53.1205V8.17139H56.3313V5.8953H53.1205V4.57726C53.1205 3.45117 53.8629 2.94822 54.7737 2.94822ZM40.7281 5.27216C38.8111 5.27216 37.3256 6.06276 36.4151 7.47649V5.36785H33.3003V22.8353H36.4151V16.1024C37.3498 17.516 38.8353 18.3068 40.7759 18.3068C44.4179 18.3068 46.7903 15.6952 46.7903 11.8373C46.7903 7.90796 44.3464 5.27216 40.7281 5.27216ZM40.0335 15.6233C37.9006 15.6233 36.4151 14.0416 36.4151 11.7416C36.4151 9.48915 37.9006 7.88375 40.0335 7.88375C42.1415 7.88375 43.6273 9.48915 43.6273 11.7416C43.6273 14.018 42.1415 15.6233 40.0335 15.6233ZM119.768 8.0552C118.802 7.4426 117.556 7.06952 116.411 7.06952C115.372 7.06952 114.051 7.35887 114.051 8.63932C114.051 11.3284 121.095 9.93714 121.095 14.5577C121.095 17.2146 118.665 18.2588 116.339 18.2588C114.595 18.2588 112.682 17.673 111.409 16.4493L111.337 16.381L112.183 14.7761L112.308 14.8932C113.368 15.8817 114.967 16.463 116.411 16.463C117.528 16.463 118.958 16.102 118.988 14.7468C119.052 11.8359 111.999 13.3356 112.015 8.78286C112.024 6.22794 114.278 5.22545 116.531 5.22545C117.935 5.22545 119.449 5.62303 120.629 6.39768L120.726 6.46147L119.89 8.13295L119.768 8.0552ZM107.483 15.7727C106.527 17.5012 104.853 18.2495 102.823 18.2588C99.7253 18.2732 97.9709 16.2487 97.9709 13.216V5.32143H100.102V12.7364C100.102 14.8658 101.313 16.1997 103.467 16.1997C106.126 16.1509 107.483 14.1524 107.483 11.6342V5.32143H109.615V18.1869H107.483V15.7727ZM90.7681 10.0402L94.1017 5.32143H96.48L92.173 11.5622L96.7933 18.1869H94.2928L90.7655 13.1078L87.1204 18.1869H84.6911L89.3846 11.5622L85.0041 5.32143H87.4815L90.7681 10.0402ZM74.6497 12.5801C75 14.8923 76.6926 16.4392 79.076 16.4392C80.5237 16.4392 81.8824 15.9278 82.8866 14.8747L82.9815 14.7753L84.191 16.041L84.109 16.1315C82.775 17.5988 80.8874 18.2588 78.9325 18.2588C75.1091 18.2588 72.5231 15.551 72.5231 11.7544C72.5231 7.98172 75.1094 5.26105 78.908 5.24938C83.2668 5.2357 85.1157 8.40692 84.9335 12.4547L84.9281 12.5801H74.6497ZM74.6474 10.8325H82.986C82.816 8.5291 81.2516 7.06952 78.9083 7.06952C76.5772 7.06952 74.9516 8.56442 74.6474 10.8325Z" fill="white"/>
<path fill-rule="evenodd" clip-rule="evenodd" d="M3.67932 18.7545C3.31882 18.1299 3.31905 17.4045 3.67944 16.7799L5.50268 13.6217C5.8633 12.9973 6.49164 12.6347 7.21299 12.6347L12.6833 12.6344C13.1219 12.6344 13.4894 12.4222 13.7087 12.0422L17.3565 5.72513C17.5758 5.34514 17.5758 4.92072 17.3565 4.54074C17.1371 4.16047 16.7694 3.94825 16.3304 3.94825H3.79292L5.04682 1.77687C5.69729 0.650299 6.82397 -5.72205e-06 8.12493 -5.72205e-06L17.2425 0.000278473C18.5434 0.000278473 19.67 0.650869 20.3206 1.77715L21.6878 4.14565C22.0482 4.77004 22.0482 5.49554 21.6878 6.11993L16.2168 15.5955C15.8562 16.2199 15.2281 16.5827 14.5069 16.5827L9.03638 16.5831C8.59772 16.5831 8.23021 16.7954 8.01079 17.1753L5.38906 21.7158L5.04693 21.1234C4.59095 20.3337 4.13519 19.544 3.67932 18.7545ZM23.6254 7.50143L24.8793 9.67254C25.5299 10.7994 25.5296 12.0997 24.8793 13.2266L20.3206 21.1226C19.67 22.2492 18.5437 22.8993 17.2428 22.8993L7.44052 22.9L9.15032 19.9387C9.51093 19.3141 10.1393 18.9514 10.8603 18.9514L16.3307 18.9513C16.7697 18.9513 17.1371 18.739 17.3565 18.3589L23.6254 7.50143ZM1.85531 7.30461C2.21592 6.67994 2.84447 6.31761 3.5655 6.31761L14.2798 6.31733L12.5699 9.27831C12.2093 9.90269 11.5812 10.2656 10.8603 10.2656L5.38906 10.2659C4.95022 10.2659 4.5826 10.4778 4.36318 10.8581L1.74171 15.3985L0.487929 13.2271C-0.162889 12.1 -0.162434 10.8 0.488042 9.67311L1.85531 7.30461Z" fill="#0CC9B7"/>
</svg>
