<svg width="122" height="23" viewBox="0 0 122 23" fill="none" xmlns="http://www.w3.org/2000/svg">
<path fill-rule="evenodd" clip-rule="evenodd" d="M61.0655 7.69715C62.0745 5.97327 63.7933 5.25843 65.8219 5.24932C68.9589 5.23507 70.746 7.19989 70.746 10.2925V18.1869H68.6149V10.7718C68.6149 8.61078 67.3498 7.29786 65.1765 7.30869C62.7386 7.32122 61.2737 8.94627 61.0655 11.3015V18.1869H58.9346V5.32137H61.0655V7.69715ZM54.7737 2.94815C55.3248 2.94815 55.9477 3.16346 56.4748 3.52287L57.6251 1.1508C56.7622 0.575794 55.6364 0.264225 54.5581 0.264225C52.1861 0.264225 50.0054 1.72609 50.0054 4.67317V5.89524H48.3279V8.17133H50.0054V18.1869H53.1205V8.17133H56.3313V5.89524H53.1205V4.57719C53.1205 3.45111 53.8629 2.94815 54.7737 2.94815ZM40.7281 5.2721C38.8111 5.2721 37.3256 6.0627 36.4151 7.47643V5.36779H33.3003V22.8352H36.4151V16.1023C37.3498 17.516 38.8353 18.3067 40.7759 18.3067C44.4179 18.3067 46.7903 15.6951 46.7903 11.8372C46.7903 7.9079 44.3464 5.2721 40.7281 5.2721ZM40.0335 15.6233C37.9006 15.6233 36.4151 14.0416 36.4151 11.7416C36.4151 9.48909 37.9006 7.88369 40.0335 7.88369C42.1415 7.88369 43.6273 9.48909 43.6273 11.7416C43.6273 14.0179 42.1415 15.6233 40.0335 15.6233ZM119.768 8.05514C118.802 7.44254 117.556 7.06946 116.411 7.06946C115.372 7.06946 114.051 7.35881 114.051 8.63926C114.051 11.3283 121.095 9.93708 121.095 14.5576C121.095 17.2146 118.665 18.2588 116.339 18.2588C114.595 18.2588 112.682 17.6729 111.409 16.4492L111.337 16.381L112.183 14.7761L112.308 14.8931C113.368 15.8816 114.967 16.463 116.411 16.463C117.528 16.463 118.958 16.102 118.988 14.7467C119.052 11.8358 111.999 13.3356 112.015 8.7828C112.024 6.22788 114.278 5.22539 116.531 5.22539C117.935 5.22539 119.449 5.62297 120.629 6.39762L120.726 6.46141L119.89 8.13289L119.768 8.05514ZM107.483 15.7727C106.527 17.5012 104.853 18.2494 102.823 18.2588C99.7253 18.2731 97.9709 16.2486 97.9709 13.2159V5.32137H100.102V12.7364C100.102 14.8658 101.313 16.1997 103.467 16.1997C106.126 16.1508 107.483 14.1524 107.483 11.6342V5.32137H109.615V18.1869H107.483V15.7727ZM90.7681 10.0402L94.1017 5.32137H96.48L92.173 11.5621L96.7933 18.1869H94.2928L90.7655 13.1077L87.1204 18.1869H84.6911L89.3846 11.5621L85.0041 5.32137H87.4815L90.7681 10.0402ZM74.6497 12.58C75 14.8923 76.6926 16.4392 79.076 16.4392C80.5237 16.4392 81.8824 15.9278 82.8866 14.8746L82.9815 14.7752L84.191 16.0409L84.109 16.1314C82.775 17.5987 80.8874 18.2588 78.9325 18.2588C75.1091 18.2588 72.5231 15.551 72.5231 11.7544C72.5231 7.98166 75.1094 5.26099 78.908 5.24932C83.2668 5.23564 85.1157 8.40686 84.9335 12.4547L84.9281 12.58H74.6497ZM74.6474 10.8325H82.986C82.816 8.52904 81.2516 7.06946 78.9083 7.06946C76.5772 7.06946 74.9516 8.56436 74.6474 10.8325Z" fill="#192851"/>
<path fill-rule="evenodd" clip-rule="evenodd" d="M3.67932 18.7544C3.31882 18.1298 3.31905 17.4044 3.67944 16.7798L5.50268 13.6216C5.8633 12.9972 6.49164 12.6346 7.21299 12.6346L12.6833 12.6343C13.1219 12.6343 13.4894 12.4221 13.7087 12.0421L17.3565 5.72504C17.5758 5.34505 17.5758 4.92063 17.3565 4.54065C17.1371 4.16038 16.7694 3.94816 16.3304 3.94816H3.79292L5.04682 1.77678C5.69729 0.650208 6.82397 -9.72748e-05 8.12493 -9.72748e-05L17.2425 0.00018692C18.5434 0.00018692 19.67 0.650778 20.3206 1.77706L21.6878 4.14556C22.0482 4.76995 22.0482 5.49545 21.6878 6.11983L16.2168 15.5954C15.8562 16.2198 15.2281 16.5827 14.5069 16.5827L9.03638 16.583C8.59772 16.583 8.23021 16.7953 8.01079 17.1752L5.38906 21.7157L5.04693 21.1233C4.59095 20.3336 4.13519 19.544 3.67932 18.7544ZM23.6254 7.50134L24.8793 9.67245C25.5299 10.7993 25.5296 12.0996 24.8793 13.2265L20.3206 21.1225C19.67 22.2491 18.5437 22.8992 17.2428 22.8992L7.44052 22.8999L9.15032 19.9386C9.51093 19.314 10.1393 18.9513 10.8603 18.9513L16.3307 18.9512C16.7697 18.9512 17.1371 18.7389 17.3565 18.3588L23.6254 7.50134ZM1.85531 7.30451C2.21592 6.67985 2.84447 6.31752 3.5655 6.31752L14.2798 6.31723L12.5699 9.27822C12.2093 9.9026 11.5812 10.2655 10.8603 10.2655L5.38906 10.2658C4.95022 10.2658 4.5826 10.4777 4.36318 10.858L1.74171 15.3984L0.487929 13.227C-0.162889 12.0999 -0.162434 10.7999 0.488042 9.67302L1.85531 7.30451Z" fill="#19D3C5"/>
</svg>
