<svg viewBox="0 0 45 40" fill="none" xmlns="http://www.w3.org/2000/svg">
<path fill-rule="evenodd" clip-rule="evenodd" d="M6.52149 32.7589C5.89179 31.668 5.89219 30.4008 6.52169 29.3099L9.7064 23.7933C10.3363 22.7027 11.4338 22.0693 12.6938 22.0693L22.2489 22.0688C23.0151 22.0688 23.657 21.6981 24.0401 21.0344L30.4117 10.0002C30.7948 9.33651 30.7948 8.59516 30.4117 7.93143C30.0286 7.2672 29.3863 6.89653 28.6195 6.89653H6.71991L8.91012 3.10371C10.0463 1.13591 12.0143 7.44619e-07 14.2867 7.44619e-07L30.2127 0.000498779C32.485 0.000498779 34.4528 1.1369 35.5892 3.10421L37.9774 7.24133C38.6068 8.33196 38.6068 9.59921 37.9774 10.6898L28.421 27.241C27.7911 28.3317 26.694 28.9655 25.4342 28.9655L15.8788 28.9661C15.1126 28.9661 14.4706 29.3369 14.0874 30.0005L9.50793 37.9315L8.91032 36.8967C8.11385 35.5174 7.31777 34.1381 6.52149 32.7589V32.7589ZM41.3618 13.103L43.552 16.8953C44.6884 18.8636 44.6879 21.1349 43.552 23.1032L35.5892 36.8954C34.4528 38.8632 32.4855 39.9989 30.2132 39.9989L13.0913 40L16.0778 34.8274C16.7077 33.7364 17.8053 33.1029 19.0646 33.1029L28.62 33.1027C29.3867 33.1027 30.0286 32.7319 30.4117 32.068L41.3618 13.103ZM3.33544 12.7591C3.96533 11.668 5.06322 11.0351 6.32267 11.0351L25.0377 11.0346L22.0509 16.2067C21.421 17.2973 20.3239 17.9312 19.0646 17.9312L9.50793 17.9317C8.7414 17.9317 8.09927 18.3018 7.71601 18.9661L3.13701 26.897L0.947004 23.1042C-0.189796 21.1354 -0.189002 18.8646 0.947201 16.8963L3.33544 12.7591"/>
</svg>
